Coordinates
version=1
nRows=16
nColumns=36
inDegrees=yes

Units are S.I. units (second, meters, Newtons, ...)
If the header above contains a line with 'inDegrees', this indicates whether rotational values are in degrees (yes) or radians (no).

endheader
time	pelvis_tilt	pelvis_list	pelvis_rotation	pelvis_tx	pelvis_ty	pelvis_tz	hip_flexion_r	hip_adduction_r	hip_rotation_r	knee_angle_r	knee_angle_r_beta	ankle_angle_r	subtalar_angle_r	mtp_angle_r	hip_flexion_l	hip_adduction_l	hip_rotation_l	knee_angle_l	knee_angle_l_beta	ankle_angle_l	subtalar_angle_l	mtp_angle_l	lumbar_extension	lumbar_bending	lumbar_rotation	arm_flex_r	arm_add_r	arm_rot_r	elbow_flex_r	pro_sup_r	arm_flex_l	arm_add_l	arm_rot_l	elbow_flex_l	pro_sup_l
     29.88333330	     -0.66154972	      1.73805240	     -2.60410767	      1.14488530	      0.95222355	      0.70393130	     13.76111635	     -2.74171284	      6.66492883	     61.67314247	      1.07639940	     -3.94420918	    -14.08759524	     -7.49999987	     10.55465151	      2.72973018	      2.84206994	     20.19212441	      0.35241905	      7.47289058	     -6.91412134	     -7.49999987	    -13.69478586	     -3.95510885	      3.41925973	      6.16815834	    -13.62277203	     24.72434637	     29.68358295	     70.38557152	      4.84629856	    -10.78637137	      5.74277843	     19.49542294	     70.47942063
     29.90000000	     -0.36889215	      1.15653132	     -2.94994720	      1.14335862	      0.95663339	      0.70296848	     15.81671060	     -2.40868144	      6.60453965	     60.25224854	      1.05160012	     -1.94068853	    -15.36451261	     -7.49999987	      8.49536621	      2.28052767	      2.88422792	     19.15751221	      0.33436166	      7.79800473	     -6.90243640	     -7.49999987	    -14.27005971	     -3.04414349	      2.80553609	      5.70038960	    -14.26963491	     24.12584955	     29.97015700	     69.92760334	      5.04446770	    -10.81273523	      6.33232137	     20.73755081	     69.47124644
     29.91666670	     -0.19332794	      0.60150298	     -3.31114041	      1.14022168	      0.95987767	      0.70134644	     17.60790905	     -2.08291118	      6.57667064	     57.64766581	      1.00614157	     -0.52882641	    -16.29435686	     -7.49999987	      6.63518672	      1.83554337	      2.73636915	     18.17169736	      0.31715595	      8.07986535	     -6.84221096	     -7.49999987	    -14.76792893	     -2.17504653	      2.32346181	      5.24717761	    -14.89176027	     23.65584533	     30.14557466	     70.06050477	      5.41549701	    -10.87508635	      7.14696104	     21.63813763	     69.06714236
     29.93333330	     -0.06742849	      0.09180096	     -3.67689886	      1.13688731	      0.95983530	      0.69890096	     19.12408296	     -1.82496001	      6.52788042	     54.21403728	      0.94621345	      0.46746948	    -17.02930110	     -7.49999987	      4.95301123	      1.47960844	      2.54489418	     17.37221413	      0.30320233	      8.25918812	     -7.01535292	     -7.49999987	    -15.23927891	     -1.33758864	      1.90321759	      4.80738356	    -15.52107611	     23.30416814	     30.38985092	     70.50359870	      5.80086315	    -10.89791529	      7.73102330	     22.47121624	     69.20003563
     29.95000000	      0.04285405	     -0.31064954	     -4.10190248	      1.13481253	      0.95905981	      0.69706283	     20.45599741	     -1.72794490	      6.39909201	     50.21272516	      0.87637738	      1.26560501	    -17.38628652	     -7.49999987	      3.38178722	      1.24819189	      2.27189054	     16.70214682	      0.29150745	      8.46394972	     -7.33297313	     -7.49999987	    -15.75148180	     -0.61869113	      1.52949302	      4.32548881	    -16.08609721	     22.75198162	     30.91326046	     70.16017694	      6.03722335	    -10.86854895	      7.85395160	     23.50637957	     68.67533898
     29.96666670	      0.18154815	     -0.66925912	     -4.55285560	      1.13415633	      0.95832001	      0.69664094	     21.52187596	     -1.72281360	      6.12594627	     45.61366599	      0.79610866	      1.78969263	    -17.00309899	     -7.49999987	      1.80912817	      1.06394147	      2.11394961	     16.00358318	      0.27931522	      8.81671561	     -7.69425400	     -7.49999987	    -16.29881259	      0.01599591	      1.14071884	      3.86266067	    -16.52530479	     22.17462208	     31.28633642	     70.43260500	      6.30759385	    -10.87446538	      8.11475446	     24.20346624	     68.74941671
     29.98333330	      0.32985913	     -0.91503643	     -4.98434866	      1.13203750	      0.95765321	      0.69717894	     22.40309285	     -1.84171412	      5.76657585	     40.54616018	      0.70766399	      2.05916397	    -15.97174889	     -7.49999987	      0.25258423	      0.98209387	      2.12870697	     15.17896829	      0.26492297	      9.44517916	     -8.02212054	     -7.49999987	    -16.85407114	      0.41296685	      0.75424413	      3.35693743	    -16.85683630	     21.45569158	     31.69607340	     70.64975777	      6.60726393	    -10.98930762	      8.25506865	     25.13230040	     68.84735177
     30.00000000	      0.35329427	     -1.00284460	     -5.35344560	      1.12698238	      0.95497083	      0.69827821	     23.33592774	     -2.05141303	      5.42841070	     35.20888181	      0.61451091	      2.15755652	    -14.48543668	     -7.49999987	     -1.09326954	      1.02797599	      2.33892800	     14.27695435	      0.24917986	     10.10186570	     -8.34506636	     -7.49999987	    -17.35732101	      0.55228217	      0.26092441	      2.93720654	    -17.05017922	     20.78387123	     32.02434246	     70.83369559	      7.09274574	    -11.19331068	      8.46227875	     26.13361433	     69.02035861
     30.01666670	      0.41357183	     -0.89423874	     -5.64807749	      1.11989442	      0.94965592	      0.69968577	     24.21531528	     -2.38140958	      5.20100825	     29.84300717	      0.52085873	      2.31945882	    -12.57219098	     -7.49999987	     -2.30601884	      1.22057716	      2.73455707	     13.49723549	      0.23557120	     10.60974385	     -8.81452660	     -7.49999987	    -18.12600434	      0.33175597	      0.35552961	      1.80649762	    -16.96012954	     17.11695164	     33.39074988	     73.45389925	      8.21200770	    -11.59336167	      9.81899086	     27.41558709	     70.18662589
     30.03333330	      0.06232444	     -0.61642244	     -5.79838320	      1.11253467	      0.94365230	      0.70087146	     25.50788745	     -2.82790515	      4.95182846	     24.60967183	      0.42951980	      2.76919585	    -10.07316687	     -7.49999987	     -2.69575428	      1.47874367	      3.23595876	     13.35311034	      0.23305574	     11.23108457	     -9.31916970	     -7.49999987	    -18.40754914	     -0.01021058	     -0.41140280	      1.76024370	    -16.92955548	     16.69045787	     33.77907616	     73.52764164	      8.84905786	    -12.22057683	     10.41634434	     29.11193729	     70.43840114
     30.05000000	     -0.57438174	     -0.18461446	     -5.79655155	      1.10716627	      0.93942092	      0.70227229	     26.98242612	     -3.35765705	      4.70372210	     19.54925731	      0.34119891	      3.54543478	     -7.13361992	     -7.49999987	     -2.50482654	      1.83480589	      3.80267055	     13.77218085	      0.24036990	     12.14748714	     -9.74481266	     -7.49999987	    -18.29781304	     -0.46224091	     -1.11970871	      1.73566685	    -16.82298623	     16.10852857	     33.99528921	     73.46575846	      9.61403971	    -12.86193327	     11.24276627	     30.46863753	     70.70240750
     30.06666670	     -1.31764375	      0.22569198	     -5.63471936	      1.10537229	      0.93750032	      0.70472876	     28.39070615	     -3.74526112	      4.59298542	     14.91401261	      0.26029862	      4.78042000	     -3.97891003	     -7.49999987	     -2.14388183	      2.15503034	      4.20579917	     14.53591017	      0.25369949	     13.65564852	     -9.67286812	     -7.49999987	    -17.86393191	     -0.81021641	     -1.93732452	      1.68006456	    -16.61712007	     15.38993740	     34.13455265	     74.18889722	     10.31076469	    -13.58924674	     12.42108708	     31.38367725	     71.64039090
     30.08333330	     -1.94036363	      0.43003508	     -5.33295793	      1.10712962	      0.93556249	      0.70791607	     29.38808984	     -3.81069759	      4.67585027	     10.95307100	      0.19116715	      6.43749829	     -0.72442228	     -7.49999987	     -2.25881703	      2.32863630	      4.53299860	     15.09630492	      0.26348023	     15.43711144	     -9.45111451	     -7.49999987	    -17.15045603	     -0.91181413	     -2.62372094	      1.53013343	    -16.37780161	     14.66466999	     33.67882570	     75.14872269	     10.85994158	    -14.06277849	     13.30400273	     31.74141091	     72.59165039
     30.10000000	     -2.33205499	      0.28505126	     -5.01845263	      1.11092388	      0.93287763	      0.71137293	     29.78272901	     -3.36507143	      5.17402416	      7.86617995	      0.13729074	      7.83441822	      1.84376111	     -7.49999987	     -3.14514819	      2.14990100	      4.56351550	     15.17513654	      0.26485610	     17.49328796	     -8.83151333	     -7.49999987	    -16.29142779	     -0.67965728	     -3.11567762	      1.32694216	    -16.15523438	     14.08958532	     32.69360082	     75.83001735	     11.17199527	    -14.28407725	     14.06972500	     31.51304488	     73.18559266
     30.11666670	     -2.72289117	     -0.05045687	     -4.77460640	      1.11465531	      0.92961925	      0.71493202	     30.05735771	     -2.54501934	      6.37050835	      6.11619544	      0.10674775	      8.55118616	      2.64831922	     -7.49999987	     -4.28017396	      1.75851292	      4.85955171	     15.01083337	      0.26198847	     19.20542390	     -9.04644858	     -7.49999987	    -15.36436184	     -0.32564450	     -3.40108861	      0.84386913	    -16.16178990	     14.00017937	     32.38560490	     75.84791206	     11.06175971	    -14.31122415	     14.15791745	     31.50573550	     73.22674817
     30.13333330	     -2.83378660	     -0.90923028	     -4.42475521	      1.11738056	      0.92665048	      0.71797011	     29.81121062	     -1.27258797	      6.47010922	      5.42913353	      0.09475626	      8.52113927	      3.48717703	     -7.49999987	     -5.59403393	      0.53332558	      3.99720886	     15.17028782	      0.26477147	     21.77542143	     -6.95056805	     -7.49999987	    -14.78611809	      0.67001771	     -3.61076543	      0.95385589	    -15.83639635	     13.25045306	     30.37023753	     76.06855489	     11.11954149	    -14.14776865	     14.60612198	     30.75902966	     73.55673941
